<?xml version="1.0" standalone="no"?>
<!DOCTYPE svg PUBLIC "-//W3C//DTD SVG 20010904//EN"
 "http://www.w3.org/TR/2001/REC-SVG-20010904/DTD/svg10.dtd">
<svg version="1.0" xmlns="http://www.w3.org/2000/svg"
 width="1024.000000pt" height="1024.000000pt" viewBox="0 0 1024.000000 1024.000000"
 preserveAspectRatio="xMidYMid meet">

<g transform="translate(0.000000,1024.000000) scale(0.100000,-0.100000)"
fill="#000000" stroke="none">
<path d="M5010 8964 c-1041 -200 -2039 -522 -2841 -918 l-197 -97 -6 -62 c-16
-172 -28 -730 -23 -1096 13 -932 120 -1618 356 -2290 160 -454 408 -909 733
-1345 49 -65 87 -120 86 -121 -2 -1 -16 -9 -33 -18 -75 -39 -137 -123 -161
-219 -13 -49 -15 -97 -11 -228 5 -183 13 -216 66 -286 49 -65 96 -100 164
-124 52 -19 82 -20 403 -20 l346 0 77 -63 c310 -254 601 -443 988 -643 l163
-84 37 15 c87 36 421 217 554 300 176 110 453 309 585 421 l62 53 359 3 358 3
58 30 c76 38 149 118 177 192 20 53 21 73 18 253 -3 190 -4 196 -31 252 -26
53 -66 97 -131 144 l-28 20 92 125 c364 491 622 993 784 1525 159 527 235 976
282 1669 25 380 18 1379 -11 1561 -5 27 -16 36 -96 78 -240 125 -693 325 -979
431 -595 220 -1187 384 -1875 520 -197 39 -216 40 -325 19z m225 -105 c159
-30 667 -144 825 -185 692 -181 1322 -412 1971 -722 l146 -70 7 -109 c3 -59 9
-313 12 -563 10 -667 -11 -1018 -96 -1620 -43 -304 -187 -899 -213 -883 -6 3
-7 1 -3 -5 13 -21 -13 -89 -35 -95 -13 -4 -18 -10 -14 -17 6 -9 10 -9 16 1 7
11 9 11 9 -2 0 -11 -9 -16 -29 -15 -23 1 -27 4 -21 16 6 12 3 16 -10 16 -10 0
-16 -4 -13 -9 3 -5 -4 -3 -15 4 -12 7 -18 17 -15 22 3 5 -5 3 -18 -4 -13 -7
-27 -12 -30 -11 -4 1 -5 -9 -2 -21 4 -18 3 -19 -6 -7 -9 13 -11 12 -12 -5 -1
-11 -2 -26 -2 -33 1 -7 -2 -11 -5 -8 -3 3 -37 -74 -77 -172 -159 -395 -371
-758 -661 -1134 -63 -81 -114 -148 -114 -150 0 -2 39 -4 86 -4 48 -1 90 -6 97
-13 8 -8 -18 -11 -99 -10 -174 2 -170 -3 -72 114 248 297 453 618 629 980 317
654 484 1364 540 2295 11 180 15 963 6 1212 l-4 108 -104 51 c-57 28 -183 84
-279 125 -96 41 -191 82 -210 91 -43 19 -217 84 -451 168 -486 176 -1100 337
-1728 456 l-113 21 -107 -21 c-500 -96 -957 -211 -1424 -358 -131 -41 -248
-78 -260 -83 -12 -5 -103 -39 -202 -76 -297 -109 -864 -350 -894 -379 -3 -4
-6 -304 -6 -668 0 -552 3 -697 18 -872 31 -368 67 -620 123 -876 185 -843 532
-1562 1052 -2179 52 -62 76 -98 68 -102 -6 -4 -61 -8 -121 -8 l-111 0 -79 103
c-344 443 -609 925 -790 1433 -161 452 -271 1017 -322 1649 -19 247 -25 1112
-9 1458 l8 188 72 36 c589 298 1395 592 2111 772 206 51 805 183 865 190 3 1
55 -8 115 -20z m123 -350 c214 -40 562 -118 797 -180 480 -125 1158 -367 1600
-572 l140 -64 8 -49 c13 -79 12 -1038 -2 -1244 -43 -670 -129 -1147 -296
-1655 -187 -566 -466 -1063 -880 -1564 l-100 -121 -1495 0 -1495 0 -55 68
c-30 37 -85 104 -122 149 -280 341 -550 801 -715 1218 -202 509 -303 940 -367
1565 -26 246 -36 480 -37 860 -2 596 1 758 14 768 16 12 154 74 397 177 629
266 1295 469 2050 625 157 32 298 59 313 59 16 1 126 -17 245 -40z m2483
-3976 c-12 -20 -14 -14 -5 12 4 9 9 14 11 11 3 -2 0 -13 -6 -23z m-321 -713
c-6 -11 -13 -20 -16 -20 -2 0 0 9 6 20 6 11 13 20 16 20 2 0 0 -9 -6 -20z
m-477 -835 c75 -20 130 -57 166 -114 45 -70 53 -119 49 -297 -3 -155 -4 -160
-33 -213 -37 -67 -99 -114 -180 -137 -56 -16 -186 -17 -1869 -16 -995 1 -1811
4 -1814 7 -3 3 521 5 1164 5 643 1 1468 2 1834 3 l665 2 57 28 c32 16 74 47
93 70 56 65 67 121 63 310 -3 155 -4 164 -30 208 -15 25 -43 60 -62 77 -75 66
54 62 -2026 62 -2136 0 -1955 7 -2041 -81 -71 -73 -82 -119 -77 -323 5 -183
12 -210 78 -276 23 -23 33 -37 23 -32 -32 18 -71 66 -95 117 -21 46 -23 64
-23 220 0 156 2 174 23 220 39 86 116 147 203 164 24 5 883 9 1909 10 1622 1
1873 -1 1923 -14z m-3562 -288 c32 -76 59 -140 61 -143 3 -2 31 59 64 136 66
156 62 152 170 149 l64 -2 0 -234 0 -233 -60 0 -60 0 0 158 0 157 -63 -143
-62 -142 -55 2 -55 3 -60 145 -60 145 -3 -163 -2 -162 -60 0 -60 0 0 229 c0
264 -11 240 110 238 l75 -2 56 -138z m756 131 c5 -7 20 -38 32 -68 27 -65 150
-359 158 -378 4 -10 -10 -12 -62 -10 -68 3 -68 3 -80 38 l-12 35 -110 3 -111
3 -16 -41 -16 -40 -65 0 c-36 0 -65 2 -65 4 0 5 188 445 196 457 8 14 140 11
151 -3z m488 -133 c50 -80 95 -153 102 -163 10 -14 12 14 13 141 l0 157 38 0
c20 0 47 3 60 6 l22 6 0 -236 0 -236 -87 0 -88 0 -21 38 c-40 71 -153 255
-164 266 -7 7 -10 -40 -10 -147 l0 -157 -60 0 -60 0 0 229 c0 262 -10 238 100
240 l66 1 89 -145z m1243 129 c19 -5 22 -13 22 -57 l0 -50 -47 7 c-158 22
-232 15 -253 -24 -18 -34 -23 -132 -8 -175 11 -33 20 -42 53 -53 26 -9 59 -11
93 -7 l52 6 0 39 0 39 -52 3 -53 3 0 45 0 45 113 3 112 3 0 -129 0 -130 -47
-12 c-76 -19 -192 -24 -258 -10 -108 22 -145 84 -145 240 1 183 63 234 280
226 63 -3 125 -8 138 -12z m480 10 c20 -6 23 -12 20 -53 l-3 -46 -132 -3 -133
-3 0 -39 0 -40 120 0 120 0 0 -50 0 -50 -120 0 -120 0 0 -40 0 -40 128 0 c71
0 131 -2 133 -4 2 -3 3 -25 1 -50 l-4 -46 -194 0 -194 0 0 230 0 229 148 4
c81 1 161 4 177 5 17 1 40 -1 53 -4z m449 -17 c42 -22 60 -51 68 -108 11 -74
-14 -140 -62 -168 -14 -7 -13 -12 9 -42 14 -19 38 -55 53 -81 l27 -48 -70 0
-69 0 -38 65 -38 65 -64 0 -63 0 0 -65 0 -65 -65 0 -65 0 0 228 c0 126 2 231
4 233 2 2 80 4 173 4 140 -1 173 -3 200 -18z m-1512 -72 c18 -44 61 -145 94
-223 34 -79 61 -146 61 -148 0 -2 -29 -4 -65 -4 l-65 0 -16 40 -16 40 -108 0
-108 0 -16 -40 -16 -40 -65 0 -65 0 21 53 c11 28 51 122 88 207 38 85 71 165
75 178 7 22 12 23 88 20 l79 -3 34 -80z m-2168 -521 c-3 -3 -12 -4 -19 -1 -8
3 -5 6 6 6 11 1 17 -2 13 -5z m50 -10 c-3 -3 -12 -4 -19 -1 -8 3 -5 6 6 6 11
1 17 -2 13 -5z m1255 -126 c197 -123 401 -243 499 -293 l106 -54 129 68 c186
98 297 163 467 275 65 43 93 56 122 56 37 0 36 -1 -71 -73 -139 -94 -376 -236
-526 -316 l-118 -63 0 -99 c0 -54 -3 -99 -7 -99 -5 1 -19 8 -33 16 -14 8 -17
13 -7 10 9 -3 17 -2 17 2 0 9 -2 11 -210 127 -257 145 -580 347 -580 364 0 4
39 19 86 33 l87 24 -52 33 c-28 18 -51 35 -51 37 0 2 13 4 29 4 18 0 62 -20
113 -52z m728 42 c0 -6 5 -10 11 -10 5 0 8 4 5 9 -3 4 28 8 69 8 46 -1 75 -5
75 -11 0 -6 4 -5 9 3 7 11 11 10 19 -5 13 -24 51 -29 59 -8 5 13 7 13 14 2 7
-10 9 -10 9 2 0 10 10 16 28 17 15 0 20 -1 10 -4 -9 -2 -19 -10 -22 -18 -4
-12 -1 -12 19 -3 14 6 25 14 25 18 0 4 7 7 15 7 20 0 11 -8 -50 -43 -37 -21
-46 -23 -35 -9 14 17 14 17 -7 5 -12 -8 -21 -18 -20 -23 2 -9 -138 -97 -273
-170 l-86 -46 -94 53 c-162 90 -315 187 -312 197 1 6 -2 8 -7 4 -11 -6 -51 15
-51 27 0 4 133 7 295 7 181 0 295 -4 295 -9z"/>
<path d="M7761 4794 c0 -11 3 -14 6 -6 3 7 2 16 -1 19 -3 4 -6 -2 -5 -13z"/>
<path d="M7736 4655 c-9 -26 -7 -32 5 -12 6 10 9 21 6 23 -2 3 -7 -2 -11 -11z"/>
<path d="M4831 8150 c-62 -13 -90 -35 -113 -87 -17 -38 -20 -62 -16 -142 4
-108 21 -146 81 -179 48 -26 210 -24 256 3 67 39 76 63 76 193 0 133 -10 159
-75 192 -45 23 -148 33 -209 20z m158 -105 c19 -18 30 -91 24 -148 -8 -63 -37
-87 -105 -87 -39 0 -54 5 -73 25 -22 21 -25 33 -25 102 0 86 14 118 53 126 35
8 111 -3 126 -18z"/>
<path d="M5306 8150 c-82 -15 -126 -60 -126 -130 0 -40 29 -93 59 -109 11 -6
59 -15 107 -20 90 -9 120 -24 108 -54 -9 -25 -45 -31 -160 -24 l-104 6 0 -39
c0 -37 2 -40 38 -47 20 -4 84 -8 142 -8 84 0 111 4 133 18 39 25 62 65 62 108
0 82 -45 116 -172 129 -95 10 -126 27 -107 58 10 15 29 17 133 17 l121 0 0 42
c0 40 -1 41 -37 47 -82 12 -150 14 -197 6z"/>
<path d="M4227 8118 c-2 -18 -2 -113 1 -210 l5 -178 48 0 48 0 3 83 3 82 93 1
92 2 0 -84 0 -84 55 0 55 0 -2 208 -3 207 -52 3 -53 3 0 -87 0 -87 -37 7 c-21
3 -64 6 -95 6 l-58 0 0 80 0 80 -49 0 c-47 0 -49 -1 -54 -32z"/>
<path d="M5610 8105 l0 -44 68 -3 67 -3 3 -162 2 -163 55 0 55 0 0 165 0 165
70 0 70 0 0 45 0 45 -195 0 -195 0 0 -45z"/>
<path d="M6745 7568 c-90 -32 -134 -142 -91 -226 l17 -34 -98 -92 c-198 -186
-187 -178 -208 -158 -19 16 -19 16 -3 -3 16 -19 16 -24 -1 -75 -22 -68 -58
-99 -95 -82 -34 15 -56 51 -60 100 -4 44 9 63 54 81 18 7 20 10 7 10 -36 2
-79 -30 -98 -72 -23 -51 -23 -64 -4 -101 l15 -29 -96 -91 c-54 -50 -104 -96
-113 -102 -12 -8 -36 -7 -94 4 -70 14 -86 13 -156 0 -105 -21 -193 -65 -269
-133 l-62 -57 0 121 c0 112 -2 122 -24 148 -22 25 -28 27 -92 25 -37 -2 -80 0
-96 3 l-28 7 0 227 0 227 35 13 c75 27 116 130 80 205 -23 49 -67 78 -126 84
-118 11 -208 -114 -155 -216 18 -34 54 -68 84 -77 22 -6 22 -6 22 -241 l0
-234 -187 2 -186 3 2 76 c3 97 -8 123 -99 224 -40 44 -92 103 -116 131 l-44
51 16 32 c11 22 15 49 12 82 -14 139 -195 177 -268 57 -39 -64 -16 -151 50
-196 29 -20 44 -23 88 -20 l53 5 67 -76 c38 -42 94 -107 125 -144 l57 -68 0
-70 c0 -65 1 -69 23 -70 58 -3 -70 -18 -159 -18 -87 -1 -105 -4 -128 -22 -25
-20 -26 -24 -26 -124 l0 -104 -169 -3 c-163 -3 -170 -4 -195 -27 -24 -23 -26
-31 -26 -113 0 -87 0 -88 25 -88 24 0 25 2 25 73 0 43 5 78 12 85 8 8 60 12
169 12 l157 0 1 -97 c1 -102 -4 -119 -29 -118 -11 0 -15 11 -13 43 l2 42 -75
0 c-66 0 -75 -2 -72 -17 2 -14 16 -19 57 -23 52 -5 54 -6 56 -35 1 -23 -10
-41 -44 -78 l-46 -48 -218 3 -218 3 36 42 36 43 212 2 c204 3 212 4 212 23 0
19 -8 20 -226 23 l-227 2 -48 -67 c-27 -37 -52 -71 -55 -76 -4 -5 -80 62 -170
150 -90 88 -183 177 -206 197 l-42 37 -178 5 c-232 6 -245 8 -237 38 7 30 -34
79 -89 108 -138 70 -283 -91 -208 -232 22 -43 83 -80 131 -80 51 0 121 38 149
83 l25 38 145 -2 c239 -2 207 14 429 -204 l192 -188 0 -169 c0 -92 -2 -168 -5
-168 -3 0 -71 64 -150 142 -80 78 -152 146 -160 151 -8 4 -108 9 -223 10 -205
2 -207 2 -210 24 -3 20 -63 83 -80 83 -14 0 -6 -65 11 -98 24 -44 15 -84 -26
-118 -24 -21 -38 -25 -65 -20 -42 6 -61 22 -79 64 -11 27 -11 37 2 68 11 28
12 40 4 50 -6 8 -9 21 -5 29 11 31 -42 -15 -58 -50 -35 -74 -12 -158 57 -209
45 -33 133 -29 182 8 21 16 45 46 54 67 l16 39 189 0 189 0 126 -123 c69 -67
149 -143 178 -169 l52 -48 -157 -155 -157 -154 -176 -1 -175 0 -22 45 c-24 49
-81 86 -129 84 -22 -1 -23 -3 -7 -6 27 -5 40 -43 16 -44 -13 0 -13 -2 3 -8 52
-22 81 -86 61 -135 -29 -69 -94 -86 -148 -37 -45 40 -46 96 -3 142 17 18 25
29 18 25 -14 -8 -36 27 -25 39 4 4 -2 3 -13 -3 -52 -26 -90 -104 -80 -162 3
-20 20 -54 37 -75 55 -66 127 -82 206 -43 36 17 49 31 66 69 l21 49 189 0 189
0 144 142 143 142 0 -397 0 -398 25 -24 24 -25 253 -1 c139 -1 267 -1 285 0
18 2 95 31 173 66 l140 64 0 -49 c0 -26 3 -55 6 -64 3 -9 34 -29 68 -45 81
-39 165 -46 531 -46 304 0 373 8 427 46 15 10 36 19 47 19 23 0 51 25 51 47 0
13 16 14 123 6 125 -8 361 -7 431 2 22 3 43 11 48 17 4 7 8 9 8 4 0 -4 11 -1
25 8 17 11 47 16 104 16 137 0 151 16 151 180 0 123 5 130 60 84 34 -29 36
-29 42 0 4 23 -33 46 -74 46 l-28 0 0 95 c0 132 -3 135 -154 135 -62 0 -128 3
-146 6 l-32 7 34 28 c18 16 38 29 44 29 15 0 41 31 45 54 4 17 15 19 149 20
l145 2 109 -103 108 -103 80 0 c50 0 77 4 73 10 -3 6 -1 10 5 10 6 0 13 -7 16
-15 5 -12 26 -15 104 -15 l98 0 23 -47 c80 -161 324 -89 306 90 -15 159 -228
201 -305 60 l-23 -43 -175 0 -174 0 -93 89 c-108 103 -139 121 -203 121 -40 0
-45 2 -39 18 15 34 35 94 38 110 2 9 9 34 17 55 12 32 18 37 46 37 41 0 91 34
195 136 l86 84 191 0 190 0 6 -24 c9 -36 55 -87 93 -102 97 -41 205 26 220
136 7 51 -25 119 -69 145 -28 16 -31 16 -19 2 7 -10 9 -17 3 -17 -13 0 -8 -48
7 -63 21 -21 13 -82 -16 -111 -67 -68 -153 -29 -153 68 0 26 8 41 35 65 20 17
32 31 26 31 -15 0 -23 33 -9 42 24 14 -10 9 -41 -7 -34 -17 -81 -70 -81 -91 0
-12 -35 -14 -210 -14 l-209 0 -88 -82 c-49 -45 -101 -95 -116 -110 -16 -15
-37 -28 -47 -28 -16 0 -18 9 -18 83 0 58 -6 97 -20 134 l-20 52 187 184 c217
213 182 197 431 197 l147 0 24 -37 c39 -61 84 -86 147 -81 85 7 138 59 148
144 11 92 -50 168 -145 181 -75 10 -171 -59 -171 -124 0 -21 -2 -22 -202 -25
-165 -2 -207 -6 -225 -19 -12 -8 -104 -93 -203 -188 l-180 -173 -50 46 c-51
48 -138 95 -175 96 -16 0 -13 7 20 37 22 20 164 154 315 298 152 144 285 267
297 273 12 7 55 12 95 12 71 0 74 -1 91 -30 11 -17 27 -30 38 -30 11 0 29 -5
39 -10 42 -22 30 14 -21 66 l-53 54 -83 0 c-52 0 -97 -6 -120 -15 -19 -8 -99
-75 -177 -147 -77 -73 -221 -208 -319 -300 -98 -93 -182 -168 -186 -168 -4 0
-14 19 -22 42 -26 79 -143 214 -208 239 -24 10 -24 10 -5 28 10 10 55 51 99
93 l81 75 57 -5 c56 -4 58 -4 97 36 31 31 40 47 40 73 0 31 14 48 152 182 140
135 155 147 176 137 63 -28 148 -2 195 62 28 38 34 116 12 162 -32 68 -130
109 -200 84z m-1576 -19 c22 -8 36 -22 46 -46 16 -38 20 -67 7 -46 -4 6 -7 -9
-7 -34 0 -37 -5 -49 -28 -69 -15 -13 -39 -27 -52 -30 -32 -8 -93 29 -101 62
-3 13 -10 24 -14 24 -5 0 -11 13 -15 30 -9 40 19 85 64 104 44 18 59 19 100 5z
m1697 -5 c37 -18 80 -85 70 -110 -3 -8 0 -14 7 -15 9 0 9 -2 -1 -6 -6 -2 -10
-8 -7 -13 3 -4 -2 -10 -10 -14 -10 -3 -15 1 -15 12 -1 10 -8 2 -18 -18 -10
-20 -33 -43 -54 -55 -35 -18 -38 -19 -72 -3 -52 25 -86 110 -71 178 12 53 102
76 171 44z m-2489 -30 c13 -4 20 -11 17 -16 -4 -6 -1 -13 5 -17 12 -8 21 -35
28 -93 9 -69 -72 -115 -126 -70 -22 18 -57 103 -56 137 0 22 58 65 89 65 12 0
31 -3 43 -6z m951 -911 l3 -143 -34 0 c-100 0 -201 -64 -242 -153 -19 -39 -32
-52 -75 -74 -37 -19 -60 -39 -79 -69 -25 -42 -28 -43 -76 -44 -113 -1 -159
-11 -188 -40 -27 -25 -29 -34 -34 -126 -3 -55 -6 -100 -6 -101 -1 0 -11 -3
-22 -5 -11 -1 -23 -12 -27 -23 -3 -11 -7 39 -7 110 -1 72 -4 139 -7 151 -3 11
-29 34 -57 50 l-52 30 -3 278 c-2 202 0 282 9 292 10 12 82 14 453 12 l441 -3
3 -142z m-2533 71 c25 -16 41 -44 25 -44 -6 0 -9 -3 -9 -7 1 -5 0 -12 -1 -18
-1 -5 -1 -29 0 -53 3 -74 -69 -124 -133 -91 -31 16 -57 50 -57 77 0 13 -7 30
-15 38 -20 21 -19 36 7 69 42 54 125 67 183 29z m4815 -3 c45 -32 32 -151 -23
-197 -38 -32 -79 -31 -118 4 -26 23 -31 35 -31 68 2 68 3 78 14 107 18 47 103
57 158 18z m-1705 -35 c64 -17 100 -35 163 -85 63 -51 108 -114 134 -194 12
-34 26 -65 31 -69 6 -3 31 -9 56 -13 71 -11 131 -44 197 -110 72 -72 94 -125
94 -230 0 -131 -43 -220 -144 -297 -58 -43 -139 -68 -223 -68 -34 0 -68 -3
-77 -6 -20 -8 -21 -53 -1 -60 11 -5 15 -22 15 -70 l0 -64 -65 0 -65 0 0 99 c0
104 -3 111 -51 111 -14 0 -19 7 -19 30 0 29 1 30 50 30 l50 0 0 -100 c0 -100
0 -100 25 -100 18 0 26 7 31 26 8 31 0 197 -10 213 -5 7 -41 11 -97 11 l-89 0
0 -35 c0 -19 5 -35 10 -35 6 0 10 -9 10 -20 0 -11 -7 -20 -15 -20 -11 0 -15
-11 -15 -37 0 -24 -8 -45 -22 -60 -20 -22 -29 -23 -150 -23 -107 0 -128 2
-128 15 0 12 19 15 111 15 61 0 119 4 129 10 30 16 39 66 41 213 2 132 3 139
24 149 12 5 30 23 39 40 37 61 -8 138 -81 138 -47 0 -72 -16 -88 -53 -18 -43
-9 -82 26 -111 l29 -25 0 -145 c0 -80 -4 -146 -8 -146 -4 0 -13 5 -19 11 -6 6
-52 12 -107 13 l-96 1 0 57 c0 31 -5 69 -12 83 -9 19 -9 28 0 37 16 16 16 268
1 302 -7 14 -19 29 -28 33 -9 4 -155 10 -326 13 l-310 5 37 37 c21 20 51 39
68 43 32 7 60 38 60 67 0 27 69 99 115 119 27 13 64 19 116 19 l77 0 32 49
c100 157 298 235 475 187z m-1548 -423 c-3 -10 -5 -2 -5 17 0 19 2 27 5 18 2
-10 2 -26 0 -35z m-7 -54 c30 -22 72 -50 92 -60 l38 -19 0 -210 0 -210 -35 0
c-32 0 -35 2 -25 19 14 28 12 51 -5 58 -22 8 -124 -104 -125 -136 0 -16 19
-45 58 -85 31 -34 60 -62 64 -64 4 -2 10 8 14 23 5 21 0 33 -24 58 l-31 32 57
-3 57 -4 -5 -311 -5 -312 -105 -55 -105 -56 -8 669 c-7 623 -7 671 9 688 9 11
20 19 23 19 4 0 31 -18 61 -41z m-145 -151 c0 -54 -1 -347 -3 -650 l-2 -553
-239 0 c-132 0 -241 2 -244 5 -7 8 -18 1286 -10 1293 4 4 117 6 252 5 l246 -3
0 -97z m1333 40 c14 -14 17 -245 4 -266 -11 -17 -847 -19 -868 -1 -18 15 -20
249 -2 267 17 17 849 17 866 0z m343 -68 c21 -12 25 -40 7 -58 -18 -18 -46
-14 -58 7 -13 25 -13 27 6 45 18 19 20 19 45 6z m-343 -272 c14 -14 17 -235 3
-256 -7 -11 -90 -14 -433 -15 -233 0 -430 3 -436 7 -17 10 -17 247 0 264 17
17 849 17 866 0z m-940 -84 c51 -14 14 -23 -108 -26 -147 -3 -156 -2 -139 18
8 10 39 14 118 14 58 0 116 -3 129 -6z m2845 -162 c10 -10 14 -21 11 -25 -4
-3 8 -18 25 -32 78 -66 3 -202 -92 -166 -38 15 -69 68 -62 106 6 33 56 85 82
85 14 0 13 3 -5 16 -12 8 -22 19 -22 25 0 16 46 10 63 -9z m-1909 -91 c13 -11
16 -36 16 -137 0 -67 -4 -125 -8 -128 -5 -3 -201 -6 -437 -7 -349 -1 -429 1
-436 12 -5 8 -9 67 -9 131 0 91 3 120 15 132 13 13 70 15 429 13 328 -2 417
-6 430 -16z m976 -71 c11 -17 11 -168 0 -175 -4 -2 -186 -5 -406 -5 l-399 -2
-3 87 c-2 58 1 92 9 102 19 22 785 15 799 -7z m-1927 -154 c10 1 17 -5 17 -15
0 -9 6 -25 13 -36 8 -12 12 -38 9 -65 l-4 -45 -39 3 -39 4 0 67 c0 36 3 91 7
121 l8 55 5 -45 c4 -35 9 -45 23 -44z m1065 -74 c3 -80 2 -82 -20 -82 -20 0
-25 8 -34 45 -6 25 -7 48 -2 51 4 3 8 18 8 33 0 32 8 43 30 39 12 -3 16 -21
18 -86z m565 -1 l298 -1 -3 -87 -3 -88 -380 -3 c-209 -1 -390 0 -402 3 -22 5
-23 11 -23 89 0 45 2 85 5 88 3 3 52 4 108 3 56 -2 236 -3 400 -4z m-1121 -43
c17 -28 8 -56 -26 -76 -61 -36 -59 -130 2 -157 13 -6 22 -19 22 -32 l0 -23
-204 0 c-149 0 -207 3 -212 12 -9 14 -7 276 2 290 10 16 405 2 416 -14z m446
10 c8 -8 12 -54 12 -143 0 -89 -4 -135 -12 -143 -9 -9 -68 -12 -205 -12 l-193
0 0 24 c0 16 7 27 20 31 21 7 50 53 50 80 0 29 -30 76 -55 85 -20 8 -25 17
-25 44 0 24 5 36 18 39 9 3 98 5 198 6 128 1 183 -2 192 -11z m-394 -137 c18
-20 13 -46 -11 -55 -22 -9 -50 2 -57 21 -7 17 20 53 39 53 7 0 19 -8 29 -19z"/>
<path d="M4497 6684 c-4 -4 -7 -34 -7 -66 l0 -59 78 3 77 3 0 60 0 60 -70 3
c-39 1 -74 0 -78 -4z m87 -40 c9 -3 16 -15 16 -26 0 -29 -64 -20 -68 10 -4 23
18 29 52 16z"/>
<path d="M4700 6625 l0 -66 78 3 77 3 0 60 0 60 -77 3 -78 3 0 -66z m112 -1
c-5 -25 -2 -23 -40 -16 -42 9 -46 25 -7 33 41 9 51 5 47 -17z"/>
<path d="M4904 6676 c-3 -7 -4 -35 -2 -62 l3 -49 80 0 80 0 3 29 c2 16 1 44
-3 63 l-6 33 -75 0 c-54 0 -76 -4 -80 -14z m114 -55 c-2 -10 -15 -17 -36 -19
-28 -3 -32 0 -32 20 0 22 4 24 36 20 26 -3 34 -9 32 -21z"/>
<path d="M5114 6677 c-3 -8 -4 -36 -2 -63 l3 -49 78 -3 78 -3 -3 63 -3 63 -73
3 c-55 2 -74 0 -78 -11z m111 -52 c0 -18 -9 -21 -55 -16 -5 1 -10 10 -10 22 0
17 5 20 33 17 24 -2 32 -8 32 -23z"/>
<path d="M4490 6435 l0 -66 78 3 77 3 0 60 0 60 -77 3 -78 3 0 -66z m110 -1
c0 -23 -3 -25 -32 -22 -25 2 -34 8 -36 26 -3 19 1 22 32 22 32 0 36 -3 36 -26z"/>
<path d="M4700 6435 l0 -66 78 3 77 3 3 63 3 62 -81 0 -80 0 0 -65z m110 -1
c0 -23 -3 -25 -32 -22 -25 2 -34 8 -36 26 -3 19 1 22 32 22 32 0 36 -3 36 -26z"/>
<path d="M4904 6486 c-3 -7 -4 -35 -2 -62 l3 -49 83 -3 82 -3 0 43 c0 85 -3
88 -86 88 -54 0 -76 -4 -80 -14z m114 -48 c-2 -13 -6 -22 -10 -20 -5 1 -19 2
-33 2 -18 0 -25 5 -25 20 0 16 7 20 36 20 31 0 35 -3 32 -22z"/>
<path d="M4497 6304 c-4 -4 -7 -34 -7 -66 l0 -59 78 3 77 3 0 60 0 60 -70 3
c-39 1 -74 0 -78 -4z m103 -65 c0 -17 -5 -20 -32 -17 -22 2 -34 9 -36 21 -3
14 4 17 32 17 30 0 36 -4 36 -21z"/>
<path d="M4707 6303 c-4 -3 -7 -33 -7 -65 l0 -58 80 0 80 0 0 65 0 65 -73 0
c-41 0 -77 -3 -80 -7z m113 -58 c0 -11 -11 -15 -40 -15 -29 0 -40 4 -40 15 0
11 11 15 40 15 29 0 40 -4 40 -15z"/>
<path d="M3770 5965 l0 -65 185 0 185 0 0 65 0 65 -185 0 -185 0 0 -65z m330
2 c0 -22 -2 -23 -117 -25 -140 -3 -173 2 -173 29 0 18 9 19 145 19 144 0 145
0 145 -23z"/>
<path d="M3770 5785 l0 -65 185 0 185 0 0 65 0 65 -185 0 -185 0 0 -65z m338
-2 c3 -23 3 -23 -147 -23 -150 0 -169 4 -157 36 5 12 30 14 153 12 145 -3 148
-3 151 -25z"/>
<path d="M3770 5605 l0 -65 185 0 185 0 0 65 0 65 -185 0 -185 0 0 -65z m330
-5 c0 -19 -7 -20 -145 -20 -138 0 -145 1 -145 20 0 19 7 20 145 20 138 0 145
-1 145 -20z"/>
<path d="M3913 5105 c-62 -27 -74 -106 -22 -149 43 -36 91 -35 130 3 45 46 32
123 -26 149 -32 15 -42 15 -82 -3z m58 -55 c25 -14 24 -46 -2 -60 -16 -9 -25
-8 -40 6 -23 21 -24 28 -3 48 18 19 20 19 45 6z"/>
<path d="M4740 5975 c-9 -10 -11 -33 -7 -71 3 -31 7 -58 9 -60 7 -6 389 -6
396 0 8 9 6 121 -3 135 -4 7 -72 11 -194 11 -156 0 -191 -3 -201 -15z m360
-60 l0 -25 -160 0 -160 0 0 25 0 25 160 0 160 0 0 -25z"/>
<path d="M5237 5952 c-35 -39 -9 -102 41 -102 28 0 62 34 62 60 0 27 -35 60
-63 60 -13 0 -31 -8 -40 -18z m61 -40 c2 -7 -6 -12 -17 -12 -21 0 -27 11 -14
24 9 9 26 2 31 -12z"/>
<path d="M5391 5946 c-16 -19 -10 -66 10 -79 26 -16 68 0 75 30 4 14 2 33 -3
42 -13 21 -66 26 -82 7z m54 -36 c-3 -5 -13 -10 -21 -10 -8 0 -14 5 -14 10 0
6 9 10 21 10 11 0 17 -4 14 -10z"/>
<path d="M4736 5634 c-10 -27 -7 -99 7 -117 11 -16 32 -17 202 -15 l190 3 8
50 c4 27 6 59 2 72 l-5 23 -199 0 c-172 0 -200 -2 -205 -16z m356 -40 c3 -3 4
-14 1 -25 -5 -18 -15 -19 -159 -19 l-154 0 0 25 0 25 153 0 c85 0 156 -3 159
-6z"/>
<path d="M5223 5604 c-15 -24 -15 -29 -2 -53 29 -51 119 -33 119 24 0 55 -86
76 -117 29z m72 -25 c0 -7 -8 -15 -17 -17 -18 -3 -25 18 -11 32 10 10 28 1 28
-15z"/>
<path d="M5403 5619 c-30 -11 -38 -45 -19 -74 28 -43 96 -26 96 23 0 15 -4 32
-8 38 -10 16 -44 22 -69 13z m39 -51 c-9 -9 -15 -9 -24 0 -10 10 -10 15 2 22
9 6 19 5 24 0 7 -7 6 -14 -2 -22z"/>
<path d="M4742 5303 c-11 -21 -6 -123 6 -135 5 -5 94 -7 198 -6 l189 3 3 71 3
71 -32 7 c-17 3 -105 6 -195 6 -145 0 -164 -2 -172 -17z m353 -63 l0 -25 -157
-3 -158 -3 0 31 0 31 158 -3 157 -3 0 -25z"/>
<path d="M5240 5282 c-44 -35 -21 -104 34 -104 58 0 86 62 46 102 -25 25 -51
25 -80 2z m54 -30 c2 -4 1 -14 -4 -22 -7 -11 -11 -11 -24 -1 -9 7 -13 17 -10
22 7 11 31 12 38 1z"/>
<path d="M5770 5216 c0 -50 16 -70 26 -32 8 33 2 69 -13 74 -9 2 -13 -10 -13
-42z"/>
<path d="M5844 5246 c-8 -22 0 -81 11 -81 6 0 11 21 13 48 3 45 -12 65 -24 33z"/>
<path d="M5922 5213 c4 -66 28 -70 28 -4 0 39 -4 51 -16 51 -12 0 -14 -10 -12
-47z"/>
<path d="M6002 5213 c2 -27 8 -48 13 -48 6 0 11 21 13 48 3 38 0 47 -13 47
-13 0 -16 -9 -13 -47z"/>
<path d="M6077 5254 c-10 -10 -8 -67 3 -84 15 -24 32 2 28 45 -3 37 -16 53
-31 39z"/>
<path d="M6245 5230 c-14 -23 11 -30 101 -30 73 0 94 3 94 14 0 7 -14 16 -31
20 -49 10 -157 7 -164 -4z"/>
<path d="M5924 5027 c-9 -24 0 -80 14 -85 8 -2 12 10 12 42 0 45 -15 70 -26
43z"/>
<path d="M6007 5034 c-4 -4 -7 -27 -7 -51 0 -56 24 -54 28 2 3 37 -8 62 -21
49z"/>
<path d="M6077 5033 c-10 -10 -8 -66 3 -83 9 -13 11 -13 20 0 23 36 3 110 -23
83z"/>
<path d="M5770 4986 c0 -49 16 -62 26 -22 8 32 2 58 -13 64 -9 2 -13 -10 -13
-42z"/>
<path d="M5842 4988 c4 -59 28 -63 28 -4 0 35 -4 46 -16 46 -12 0 -14 -9 -12
-42z"/>
<path d="M6252 5009 c-13 -5 -22 -15 -20 -21 3 -9 35 -14 103 -16 102 -3 128
5 105 33 -14 17 -148 21 -188 4z"/>
<path d="M3385 7554 c-97 -50 -124 -157 -60 -239 35 -47 78 -67 139 -67 43 0
54 4 78 31 15 17 28 28 28 23 0 -4 -5 -13 -12 -20 -10 -10 19 -44 135 -160
120 -120 147 -152 147 -176 0 -70 69 -123 146 -112 l43 5 121 -116 c93 -88
124 -112 131 -102 19 30 5 51 -103 157 -87 85 -110 113 -101 124 34 43 19 125
-31 163 -33 25 -83 32 -133 19 -31 -8 -29 -16 10 -37 17 -10 26 -13 20 -6 -23
23 -15 39 20 39 42 0 59 -11 47 -30 -6 -9 -4 -20 5 -30 7 -8 17 -27 20 -42 6
-22 1 -33 -24 -59 -25 -25 -37 -30 -59 -25 -42 10 -65 44 -57 84 6 34 -7 62
-29 62 -6 0 -73 60 -148 133 l-137 132 21 39 c68 131 -85 279 -217 210z m153
-21 c40 -29 64 -81 58 -127 -2 -21 -10 -44 -17 -50 -9 -8 -10 -8 -4 2 13 23
-26 9 -56 -20 -30 -30 -70 -36 -112 -17 -26 12 -42 36 -51 81 -4 19 -11 26
-21 22 -11 -5 -15 1 -15 23 0 35 22 68 64 94 39 25 115 21 154 -8z"/>
<path d="M5813 7514 c-56 -28 -88 -98 -72 -158 5 -20 16 -41 23 -49 11 -11 -5
-32 -96 -128 -60 -62 -116 -129 -124 -147 -12 -28 -14 -63 -8 -210 5 -97 10
-169 12 -159 3 15 9 19 28 16 18 -2 24 39 24 177 l0 152 47 53 c26 30 74 83
108 119 l60 65 62 0 c71 0 107 20 135 76 65 125 -71 256 -199 193z m137 -9
c16 -8 34 -24 40 -34 12 -24 13 -34 2 -27 -5 3 -7 -9 -4 -27 3 -25 1 -29 -7
-17 -9 12 -11 11 -11 -8 0 -30 -61 -92 -90 -92 -31 0 -80 52 -81 87 l-1 28 -8
-25 c-7 -23 -8 -22 -9 10 -1 27 5 40 24 54 27 21 34 42 10 32 -25 -9 -17 2 13
18 35 20 85 20 122 1z"/>
<path d="M2842 7243 c-13 -3 -43 -23 -67 -46 -34 -33 -45 -51 -50 -87 -23
-156 160 -257 271 -149 42 40 58 88 50 146 -13 98 -100 156 -204 136z m114
-31 c39 -21 66 -60 71 -104 3 -28 1 -38 -5 -30 -16 23 -22 19 -42 -25 -25 -57
-69 -80 -121 -64 -22 7 -44 22 -50 34 -17 32 -49 61 -50 45 0 -7 -4 -4 -8 7
-12 29 4 85 32 112 47 48 114 57 173 25z m-166 -177 c0 -8 -2 -15 -4 -15 -2 0
-6 7 -10 15 -3 8 -1 15 4 15 6 0 10 -7 10 -15z"/>
<path d="M7275 7233 c-47 -25 -66 -45 -87 -91 -25 -56 -17 -111 25 -158 39
-46 77 -65 132 -66 163 -3 214 235 65 310 -52 26 -93 28 -135 5z m159 -37 c20
-15 39 -38 42 -51 9 -35 -4 -78 -20 -72 -8 3 -20 -9 -30 -29 -11 -24 -30 -41
-59 -54 -23 -11 -43 -15 -45 -10 -2 6 -11 10 -21 10 -38 0 -58 29 -60 85 -1
17 -3 17 -11 5 -5 -8 -10 -13 -10 -10 -1 3 -3 22 -6 42 -7 45 7 73 49 99 46
29 123 22 171 -15z"/>
<path d="M3042 6958 c-7 -7 -12 -19 -12 -28 0 -14 17 -15 135 -12 l135 4 217
-209 c365 -350 339 -328 356 -303 16 23 7 33 -243 265 -41 38 -122 115 -180
172 -58 56 -118 107 -133 112 -40 15 -260 14 -275 -1z"/>
<path d="M2977 6904 c-4 -4 -7 -16 -7 -26 0 -13 8 -18 31 -18 26 0 30 3 27 23
-3 22 -36 36 -51 21z"/>
<path d="M7320 6620 c-12 -8 -12 -10 3 -16 21 -8 35 2 21 16 -5 5 -15 6 -24 0z"/>
<path d="M4106 6432 c-10 -17 -14 -102 -4 -108 5 -3 20 -3 33 0 21 5 23 10 18
41 l-5 34 93 3 c76 2 94 6 94 18 0 12 -20 16 -112 18 -61 1 -114 -1 -117 -6z"/>
<path d="M3268 5183 c30 -6 28 -29 -3 -35 -13 -3 -24 -2 -23 1 3 26 -3 31 -23
21 -24 -14 -59 -68 -59 -93 0 -34 32 -88 61 -102 59 -31 136 -10 160 44 13 29
17 30 79 33 59 3 65 5 68 26 4 26 17 29 31 5 9 -17 12 -16 37 9 34 34 27 43
-22 29 -56 -16 -176 -3 -192 21 -19 27 -66 48 -104 47 -23 -1 -27 -3 -10 -6z
m55 -74 c13 -21 1 -68 -19 -76 -9 -3 -28 -2 -42 3 -57 21 -40 98 20 92 17 -2
35 -10 41 -19z"/>
<path d="M6914 5180 c-12 -4 -31 -21 -43 -36 -21 -26 -26 -28 -97 -26 -66 2
-75 0 -70 -14 3 -8 6 -21 6 -29 0 -9 24 -15 75 -20 57 -5 75 -10 75 -22 0 -8
13 -28 29 -44 52 -52 141 -36 176 31 26 51 19 88 -24 131 -40 40 -78 49 -127
29z m92 -75 c15 -23 15 -27 0 -50 -27 -40 -96 -25 -96 21 0 55 66 75 96 29z"/>
<path d="M3810 3946 l0 -594 23 -6 c12 -3 88 -6 168 -6 l147 0 7 56 c4 31 3
109 0 174 -4 65 -4 148 0 184 l7 66 254 0 254 0 0 -240 0 -240 175 0 175 0 0
600 0 600 -175 0 -175 0 0 -230 0 -230 -255 0 -255 0 0 230 0 230 -175 0 -175
0 0 -594z"/>
<path d="M5090 3940 l0 -600 164 0 163 0 6 64 c3 35 3 200 0 367 -3 167 -2
301 1 298 4 -4 66 -105 139 -224 73 -120 135 -217 140 -216 4 0 47 1 96 1 l88
0 126 208 c69 114 132 215 139 225 11 14 13 -45 13 -347 l0 -365 163 -5 162
-4 1 261 c0 144 1 413 2 597 l2 335 -190 2 -190 3 -84 -143 c-46 -78 -120
-200 -164 -271 l-80 -128 -17 28 c-40 67 -284 471 -297 492 -13 22 -17 22
-198 22 l-185 0 0 -600z"/>
<path d="M4127 2642 c-15 -37 -27 -73 -27 -80 0 -8 19 -12 60 -12 33 0 60 3
60 8 0 16 -53 152 -60 152 -4 0 -19 -30 -33 -68z"/>
<path d="M6650 2670 l0 -60 83 0 c94 0 107 7 107 60 0 53 -13 60 -107 60 l-83
0 0 -60z"/>
<path d="M5262 2700 c-5 -14 -19 -49 -31 -78 -12 -29 -21 -57 -21 -62 0 -6 27
-10 60 -10 42 0 60 4 59 13 0 6 -13 46 -29 87 -26 70 -29 73 -38 50z"/>
</g>
</svg>
